<svg width="300" height="80" version="1.1" viewBox="0 0 79.375 21.167" xmlns="http://www.w3.org/2000/svg">
 <g>
  <path d="m6.0227 19.421h-3.8147v-12.486h3.8147zm-4.0384-15.717q0-0.75007 0.56563-1.2347 0.57879-0.48466 1.5654-0.48466 0.97341 0 1.5522 0.48466t0.57879 1.2347q0 0.76161-0.59194 1.2463-0.57879 0.48466-1.539 0.48466-0.96026 0-1.5522-0.48466-0.57879-0.48466-0.57879-1.2463z" fill="#800000"/>
  <path d="m12.652 6.9348 0.11839 1.4424q1.5259-1.6732 4.091-1.6732 2.2625 0 3.3675 1.1655 1.105 1.1655 1.1313 3.4849v8.0661h-3.8016v-7.9853q0-1.0616-0.52617-1.5348-0.52617-0.48466-1.7495-0.48466-1.6048 0-2.4072 1.2001v8.8047h-3.8016v-12.486z" fill="#800000"/>
  <g fill="#008080">
   <path d="m31.568 15.255 4.3409-12.636h4.3935l-6.6692 16.802h-4.1173l-6.6429-16.802h4.3804z"/>
   <path d="m47.827 19.651q-3.1307 0-5.1038-1.6848-1.96-1.6848-1.96-4.4889v-0.32311q0-1.8809 0.82872-3.358 0.82872-1.4886 2.3415-2.2848 1.5259-0.80777 3.4727-0.80777 2.9202 0 4.5908 1.6155 1.6837 1.6155 1.6837 4.5812v1.3617h-9.0633q0.18416 1.2232 1.105 1.9617 0.93395 0.73853 2.3546 0.73853 2.1968 0 3.4333-1.3963l1.8679 1.8348q-0.85503 1.0616-2.3151 1.6617-1.4601 0.58852-3.2359 0.58852zm-0.43409-10.247q-1.1313 0-1.8416 0.66929-0.69718 0.66929-0.89449 1.9156h5.288v-0.26541q-0.026308-1.1078-0.68402-1.7078-0.65771-0.61159-1.8679-0.61159z"/>
   <path d="m63.546 15.97q0-0.61159-0.69718-0.95778-0.68402-0.35772-2.2099-0.63467-5.0775-0.9347-5.0775-3.785 0-1.6617 1.5654-2.7695 1.5785-1.1193 4.1173-1.1193 2.7098 0 4.3277 1.1193 1.6311 1.1193 1.6311 2.908h-3.8016q0-0.71545-0.52617-1.177-0.52617-0.47312-1.6443-0.47312-0.96026 0-1.4864 0.3808-0.52617 0.3808-0.52617 0.96932 0 0.5539 0.59194 0.90008 0.6051 0.33465 2.0258 0.58852 1.4207 0.24233 2.3941 0.5539 3.0123 0.96932 3.0123 3.358 0 1.7078-1.6706 2.7695-1.6706 1.0501-4.3146 1.0501-1.789 0-3.1833-0.5539-1.3812-0.56544-2.1705-1.5348-0.78926-0.98086-0.78926-2.1117h3.6043q0.05261 0.88854 0.74979 1.3617 0.69718 0.47312 1.8679 0.47312 1.0918 0 1.6443-0.35773 0.56563-0.36926 0.56563-0.95778z"/>
   <path d="m74.241 3.8653v3.0695h2.4335v2.4464h-2.4335v6.2313q0 0.69237 0.30255 0.9924 0.30255 0.30003 1.1576 0.30003 0.6314 0 1.1181-0.08077v2.5272q-1.1181 0.30003-2.302 0.30003-3.9989 0-4.0778-3.5426v-6.7275h-2.0784v-2.4464h2.0784v-3.0695z"/>
  </g>
 </g>
</svg>
